<?xml version="1.0" encoding="UTF-8" standalone="no"?>
<!DOCTYPE svg PUBLIC "-//W3C//DTD SVG 1.1//EN" "http://www.w3.org/Graphics/SVG/1.1/DTD/svg11.dtd">
<svg version="1.1" xmlns="http://www.w3.org/2000/svg" xmlns:xlink="http://www.w3.org/1999/xlink" preserveAspectRatio="xMidYMid meet" viewBox="0 0 600 400" width="600" height="400"><defs><path d="M0 0L600 0L600 400L0 400L0 0Z" id="e1gxFA7cJ"></path><path d="M565 200C565 309 476.5 397.5 367.5 397.5C258.5 397.5 170 309 170 200C170 91 258.5 2.5 367.5 2.5C476.5 2.5 565 91 565 200Z" id="b28PJ63cfS"></path><path d="M552.5 200C552.5 302.1 469.6 385 367.5 385C265.39 385 182.5 302.1 182.5 200C182.5 97.9 265.39 15 367.5 15C469.6 15 552.5 97.9 552.5 200Z" id="ajxrUSPkp"></path></defs><g><g><g><use xlink:href="#e1gxFA7cJ" opacity="1" fill="#666666" fill-opacity="1"></use><g><use xlink:href="#e1gxFA7cJ" opacity="1" fill-opacity="0" stroke="#f3f3f3" stroke-width="1" stroke-opacity="1"></use></g></g><g><use xlink:href="#b28PJ63cfS" opacity="1" fill="#e7e7e7" fill-opacity="1"></use><g><use xlink:href="#b28PJ63cfS" opacity="1" fill-opacity="0" stroke="#868686" stroke-width="1" stroke-opacity="1"></use></g></g><g><use xlink:href="#ajxrUSPkp" opacity="1" fill="#8d8d8d" fill-opacity="1"></use><g><use xlink:href="#ajxrUSPkp" opacity="1" fill-opacity="0" stroke="#000000" stroke-width="1" stroke-opacity="1"></use></g></g></g></g></svg>